HIERARCHY
ROOT Hips
{
	OFFSET -14.64140 90.27770 -84.91600
	CHANNELS 6 Xposition Yposition Zposition Zrotation Xrotation Yrotation
	JOINT Spine
	{
		OFFSET 0.00000 13.20850 -1.60436
		CHANNELS 3 Zrotation Xrotation Yrotation
		JOINT Spine1
		{
			OFFSET 0.00000 8.61716 0.00000
			CHANNELS 3 Zrotation Xrotation Yrotation
			JOINT Spine2
			{
				OFFSET 0.00000 8.61717 0.00000
				CHANNELS 3 Zrotation Xrotation Yrotation
				JOINT Spine3
				{
					OFFSET 0.00000 8.61717 0.00000
					CHANNELS 3 Zrotation Xrotation Yrotation
					JOINT Neck
					{
						OFFSET 0.00000 11.07920 1.10792
						CHANNELS 3 Zrotation Xrotation Yrotation
						JOINT Neck1
						{
							OFFSET 0.00000 7.08032 0.00000
							CHANNELS 3 Zrotation Xrotation Yrotation
							JOINT Head
							{
								OFFSET 0.00000 7.08031 0.00000
								CHANNELS 3 Zrotation Xrotation Yrotation
								End site
								{
									OFFSET 0.00000 0.00000 0.00000
								}
							}
						}
					}
					JOINT RightShoulder
					{
						OFFSET -0.01000 7.91373 5.19711
						CHANNELS 3 Zrotation Xrotation Yrotation
						JOINT RightArm
						{
							OFFSET -18.41580 0.00000 0.00000
							CHANNELS 3 Zrotation Xrotation Yrotation
							JOINT RightForeArm
							{
								OFFSET -29.11090 0.00000 0.00000
								CHANNELS 3 Zrotation Xrotation Yrotation
								JOINT RightHand
								{
									OFFSET -24.65040 0.00000 0.00000
									CHANNELS 3 Zrotation Xrotation Yrotation
									JOINT RightHandThumb1
									{
										OFFSET -5.35114 -0.85590 3.97906
										CHANNELS 3 Zrotation Xrotation Yrotation
										JOINT RightHandThumb2
										{
											OFFSET -4.52789 0.00000 0.00000
											CHANNELS 3 Zrotation Xrotation Yrotation
											JOINT RightHandThumb3
											{
												OFFSET -2.46976 0.00000 0.00000
												CHANNELS 3 Zrotation Xrotation Yrotation
												End site
												{
													OFFSET 0.00000 0.00000 0.00000
												}
											}
										}
									}
									JOINT RightHandIndex1
									{
										OFFSET -14.26970 0.00000 2.88139
										CHANNELS 3 Zrotation Xrotation Yrotation
										JOINT RightHandIndex2
										{
											OFFSET -5.48836 0.00000 0.00000
											CHANNELS 3 Zrotation Xrotation Yrotation
											JOINT RightHandIndex3
											{
												OFFSET -3.01859 0.00000 0.00000
												CHANNELS 3 Zrotation Xrotation Yrotation
												End site
												{
													OFFSET 0.00000 0.00000 0.00000
												}
											}
										}
									}
									JOINT RightHandMiddle1
									{
										OFFSET -14.26970 0.00000 -0.09147
										CHANNELS 3 Zrotation Xrotation Yrotation
										JOINT RightHandMiddle2
										{
											OFFSET -6.17441 0.00000 0.00000
											CHANNELS 3 Zrotation Xrotation Yrotation
											JOINT RightHandMiddle3
											{
												OFFSET -3.56743 0.00000 0.00000
												CHANNELS 3 Zrotation Xrotation Yrotation
												End site
												{
													OFFSET 0.00000 0.00000 0.00000
												}
											}
										}
									}
									JOINT RightHandRing1
									{
										OFFSET -12.69180 0.00000 -3.06433
										CHANNELS 3 Zrotation Xrotation Yrotation
										JOINT RightHandRing2
										{
											OFFSET -5.62556 0.00000 0.00000
											CHANNELS 3 Zrotation Xrotation Yrotation
											JOINT RightHandRing3
											{
												OFFSET -3.56744 0.00000 0.00000
												CHANNELS 3 Zrotation Xrotation Yrotation
												End site
												{
													OFFSET 0.00000 0.00000 0.00000
												}
											}
										}
									}
									JOINT RightHandPinky1
									{
										OFFSET -11.11390 0.00000 -6.03719
										CHANNELS 3 Zrotation Xrotation Yrotation
										JOINT RightHandPinky2
										{
											OFFSET -4.52789 0.00000 0.00000
											CHANNELS 3 Zrotation Xrotation Yrotation
											JOINT RightHandPinky3
											{
												OFFSET -2.46976 0.00000 0.00000
												CHANNELS 3 Zrotation Xrotation Yrotation
												End site
												{
													OFFSET 0.00000 0.00000 0.00000
												}
											}
										}
									}
								}
							}
						}
					}
					JOINT LeftShoulder
					{
						OFFSET 0.01000 7.91373 5.19711
						CHANNELS 3 Zrotation Xrotation Yrotation
						JOINT LeftArm
						{
							OFFSET 18.41580 0.00000 0.00000
							CHANNELS 3 Zrotation Xrotation Yrotation
							JOINT LeftForeArm
							{
								OFFSET 29.11090 0.00000 0.00000
								CHANNELS 3 Zrotation Xrotation Yrotation
								JOINT LeftHand
								{
									OFFSET 24.65040 0.00000 0.00000
									CHANNELS 3 Zrotation Xrotation Yrotation
									JOINT LeftHandThumb1
									{
										OFFSET 5.35114 -0.85590 3.97906
										CHANNELS 3 Zrotation Xrotation Yrotation
										JOINT LeftHandThumb2
										{
											OFFSET 4.52789 0.00000 0.00000
											CHANNELS 3 Zrotation Xrotation Yrotation
											JOINT LeftHandThumb3
											{
												OFFSET 2.46977 0.00000 0.00000
												CHANNELS 3 Zrotation Xrotation Yrotation
												End site
												{
													OFFSET 0.00000 0.00000 0.00000
												}
											}
										}
									}
									JOINT LeftHandIndex1
									{
										OFFSET 14.26970 0.00000 2.88139
										CHANNELS 3 Zrotation Xrotation Yrotation
										JOINT LeftHandIndex2
										{
											OFFSET 5.48836 0.00000 0.00000
											CHANNELS 3 Zrotation Xrotation Yrotation
											JOINT LeftHandIndex3
											{
												OFFSET 3.01859 0.00000 0.00000
												CHANNELS 3 Zrotation Xrotation Yrotation
												End site
												{
													OFFSET 0.00000 0.00000 0.00000
												}
											}
										}
									}
									JOINT LeftHandMiddle1
									{
										OFFSET 14.26970 0.00000 -0.09147
										CHANNELS 3 Zrotation Xrotation Yrotation
										JOINT LeftHandMiddle2
										{
											OFFSET 6.17440 0.00000 0.00000
											CHANNELS 3 Zrotation Xrotation Yrotation
											JOINT LeftHandMiddle3
											{
												OFFSET 3.56744 0.00000 0.00000
												CHANNELS 3 Zrotation Xrotation Yrotation
												End site
												{
													OFFSET 0.00000 0.00000 0.00000
												}
											}
										}
									}
									JOINT LeftHandRing1
									{
										OFFSET 12.69180 0.00000 -3.06433
										CHANNELS 3 Zrotation Xrotation Yrotation
										JOINT LeftHandRing2
										{
											OFFSET 5.62556 0.00000 0.00000
											CHANNELS 3 Zrotation Xrotation Yrotation
											JOINT LeftHandRing3
											{
												OFFSET 3.56744 0.00000 0.00000
												CHANNELS 3 Zrotation Xrotation Yrotation
												End site
												{
													OFFSET 0.00000 0.00000 0.00000
												}
											}
										}
									}
									JOINT LeftHandPinky1
									{
										OFFSET 11.11390 0.00000 -6.03719
										CHANNELS 3 Zrotation Xrotation Yrotation
										JOINT LeftHandPinky2
										{
											OFFSET 4.52789 0.00000 0.00000
											CHANNELS 3 Zrotation Xrotation Yrotation
											JOINT LeftHandPinky3
											{
												OFFSET 2.46976 0.00000 0.00000
												CHANNELS 3 Zrotation Xrotation Yrotation
												End site
												{
													OFFSET 0.00000 0.00000 0.00000
												}
											}
										}
									}
								}
							}
						}
					}
					JOINT pCube4
					{
						OFFSET 0.00000 10.91090 1.10792
						CHANNELS 3 Zrotation Xrotation Yrotation
						End site
						{
							OFFSET 0.00000 0.00000 0.00000
						}
					}
				}
			}
		}
	}
	JOINT RightUpLeg
	{
		OFFSET -9.98441 0.00000 0.00000
		CHANNELS 3 Zrotation Xrotation Yrotation
		JOINT RightLeg
		{
			OFFSET 0.00000 -42.11790 0.00000
			CHANNELS 3 Zrotation Xrotation Yrotation
			JOINT RightFoot
			{
				OFFSET 0.00000 -45.00020 -0.00001
				CHANNELS 3 Zrotation Xrotation Yrotation
				JOINT RightForeFoot
				{
					OFFSET 0.00000 -3.74820 0.00000
					CHANNELS 3 Zrotation Xrotation Yrotation
					JOINT RightToeBase
					{
						OFFSET 0.00000 0.06325 14.43120
						CHANNELS 3 Zrotation Xrotation Yrotation
						End site
						{
							OFFSET 0.00000 0.00000 0.00000
						}
					}
				}
			}
		}
	}
	JOINT LeftUpLeg
	{
		OFFSET 9.98441 0.00000 0.00000
		CHANNELS 3 Zrotation Xrotation Yrotation
		JOINT LeftLeg
		{
			OFFSET 0.00000 -42.11800 0.00000
			CHANNELS 3 Zrotation Xrotation Yrotation
			JOINT LeftFoot
			{
				OFFSET 0.00000 -45.00070 0.00000
				CHANNELS 3 Zrotation Xrotation Yrotation
				JOINT LeftForeFoot
				{
					OFFSET 0.00000 -3.74824 0.00000
					CHANNELS 3 Zrotation Xrotation Yrotation
					JOINT LeftToeBase
					{
						OFFSET 0.00000 0.06325 14.43110
						CHANNELS 3 Zrotation Xrotation Yrotation
						End site
						{
							OFFSET 0.00000 0.00000 0.00000
						}
					}
				}
			}
		}
	}
}
MOTION
Frames: 4
Frame Time: 0.050000
0.01285864826201595 -0.002569339794806884 0.020364383320005366 -0.049010319471345855 0.037219720792375274 -0.027858909436072155 3.486694711197624 4.535647820220939 -1.7939945964972497 -0.8405464023733276 3.526481013577692 0.3467457419013526 -0.6543485341938219 -1.1563259356054818 -0.45143257904728096 -0.39782929076533763 -0.4475165081546458 -0.5242226396253488 -0.3705004688329868 12.539128351426228 -1.1283948892425528 0.2969208779423397 -0.35586606645276714 -2.535182702768063 0.6743390809112989 -16.53560086618627 -0.26814936540240253 -9.190365503162045 3.306208857003787 -16.822282565062768 73.06556231938245 -6.557247835253776 1.6741829805611972 1.3466820898171743 0.542742520098036 67.12584276511807 16.20490513238352 -0.3715705782449402 -2.0079116114557642 4.5467348716314255 -0.17663751958430376 -1.5441978953890207 0.0029481588706013664 0.004584701629280227 -56.27022880222104 0.046321296863854416 0.03904092002723608 -56.250514694813916 -38.76839244146879 -0.02673527116456952 -0.0075187792272036775 -0.008004934484221259 -0.002178263471455801 -0.004946391030219339 -0.0067854219198688935 -0.00231075275579701 -0.040489035128588965 -36.715876541006125 -0.02044036905353057 0.032071127059937365 -0.02504224420094504 -0.008236301489437008 0.026362680768170166 0.045564677840800115 0.004154868535743221 0.009341040647527004 -19.724787726647243 -0.045669272779033994 0.03558504819133021 -0.02661151968769096 0.04383536495743883 -0.005256209389524572 0.03909894304230629 -0.04344796325761966 -0.014667639186349828 24.049133355610483 -0.012118190743090071 0.032644466805916955 28.875550985512334 -0.03981954047732835 -0.015825892626509734 28.86985309636408 -0.027245829627674648 -0.03233821658567541 11.50660389461434 2.7654707210404363 14.673295680048438 -62.8585798683594 2.0768704290612767 -23.38371291735629 -13.027886558165028 -4.291968019271092 -85.47236946011304 -12.227453802229988 -3.182743768400228 -0.9467950919753945 -0.5110429211304438 0.06492294251320961 -8.108886651425474 -0.007359992542091029 0.01093944523346754 44.60260991378447 -0.03454291467184943 -0.019703361960009682 44.59426340902623 12.424085881794383 -0.0144724631502964 -0.048780615392749124 -0.019351824566986274 0.04378563462682689 -0.017247909569609192 0.03744389591231407 -0.009758541657116733 0.022934363545028848 11.110530209188155 -0.024974574820396375 -0.017634867263101095 -0.04740091208479895 0.04777821882167123 -0.03356021574251817 -0.007569040541443505 0.032265515416420115 -0.045899880109262964 4.798158513859636 -0.03742392591213005 -0.03083087411222936 0.0010848421475492273 -0.041779177990515476 -0.007147044309318276 -0.02136620827504714 -0.038721112704287707 -0.006414359832973714 -5.592956096935677 -0.03187172377957643 0.03991439017764153 -6.6959817564994975 0.00729313484995094 0.0260787103904796 -6.743012951434612 0.04567352827191335 0.003105703030671076 -0.04533924171646625 0.04654516203674396 -0.028158678111024436 8.092290657303998 3.4760602076774085 -19.19310386912189 -0.044656550647638814 10.424797882305993 0.04388289756060746 -5.62890890934352 -15.635685224081437 3.2232760470809736 -0.029018578217107394 0.03493897112522541 0.009282497991837488 0.02577533779676314 4.678759746696168 -0.008675196701157087 12.480968255113366 -8.20123882307212 6.860070686739052 0.014058899891171109 46.398520913044905 0.05030212505393414 -4.287290153619897 -14.782152290590018 -3.7918519733117684 0.013732436270630102 -0.042017241435911304 -0.005633854515185744 0.03443881570399569 -10.7192559419029 -0.0004946605853638729 
-0.03897890705645249 0.016086431075767838 -0.03233840465528202 0.0345760210685249 0.03553685728217605 0.03425405666370347 3.519895467203626 4.416653628648324 -1.8872429830207171 -0.7922670279390189 3.4722835268769874 0.35721361267612234 -0.6446691376988336 -1.1673301551998732 -0.528471658696389 -0.48481288424269575 -0.4124406436038547 -0.52089442307676 -0.48200510921469875 12.638421596604312 -1.006025066571811 0.3627261239139482 -0.4089591450946934 -2.1016480928136523 0.6627741389216882 -16.613059409091917 -0.14278224267840112 -9.384961886752766 3.3388930076982346 -16.875995024011925 73.26240372044488 -6.582636330891107 1.0969368776871322 1.3946012053720556 -0.2619020600289912 67.67047971730302 16.064153055624754 -0.33592901958032984 -1.9070255151046873 4.512996286104292 -0.1488111712576092 -1.5665711004125966 -0.030545128159718812 0.021261755461372146 -56.18625997217845 -0.0479324522862891 0.009936346773646383 -56.25688194251998 -38.78274257803243 -0.04479321196064946 -0.03530390254762138 -0.045781601400281674 0.017938197586082536 -0.033190239871604604 -0.020633787260961472 -0.038928718337518146 0.03358942347780075 -36.722383527308814 -0.013725644207152289 0.026734309123494632 0.006871752752888962 0.044375476837827485 0.03913010052630897 -0.031784012347045844 0.03863966854345906 0.0005566562060278088 -19.74093332850734 -0.03364173180497465 0.0002612091338321434 0.0035330070521508166 0.01290762459557176 -0.04723071856966513 0.002921063517588654 -0.010498871977075422 -0.010493935283545345 24.08626311582167 0.01896192756978383 0.013576528817945448 28.87010388043725 0.01455024604523903 0.03173605463649172 28.850841876450282 -0.023027368424562013 -0.008427771046514588 11.960778468349508 2.825780593997554 14.735451161789516 -62.42379925846202 1.6355764018773422 -24.238268763450275 -12.605768114070756 -5.07811569116739 -86.29794007365362 -11.955444059063018 -3.4280622774980207 -0.9093562903763734 -0.4584955542112687 0.10019404039826983 -8.101267874907675 -0.020358575169626043 -0.03270911021158496 44.575058164796715 0.048848369899486245 -0.04388562667307884 44.541936459692465 12.480168626578816 -0.0486465740878689 0.04970831620195578 0.02368026604650262 -0.00423288756030626 0.011642948988264103 0.02010816556104129 0.04838558474133351 -0.024158954823900104 11.120134317468146 0.009169484038694633 0.03836667191897398 0.00345218762228187 -0.016361687523323305 0.015922859148503745 -0.023895930891509595 -0.0017106062800466382 0.007147400575681537 4.724135900031273 -0.017640290870021367 0.028484359851969943 0.0021025140503730393 0.027268091435886307 -0.016121581936365637 -0.02152988105649642 0.00043863602667454116 0.04404382378301565 -5.62727577591696 0.00867451414179954 -0.03597825631407555 -6.681699037272866 -0.027257848371714286 0.0022988728631674724 -6.751529907491256 -0.00211439865247576 0.014253462142711988 -0.03129471109358674 0.04816505812063124 -0.013445284568865673 8.084723768347391 3.4447715299655948 -19.205832343811196 -0.019468471148972055 10.36750691173217 -0.02098276700377204 -5.657117314568458 -15.61646856342296 3.1959427480763964 0.010520319986537722 -0.019112173635372313 0.01596812028918735 -0.025393202043988705 4.650227616638644 -0.01366427935200216 12.466331083805715 -8.253661241873989 6.904372753776673 0.03032399114841003 46.38085907877629 -0.005696162895327134 -4.36404010210486 -14.74217244922034 -3.806512080452269 0.013241633074306161 0.03691738301427949 -0.004997682828885124 -0.0056010070445780625 -10.707914626059205 -0.03537167143587074 
-0.008707775290399337 -0.038055699031835054 -0.009456602052148478 0.04007476505310787 -0.021946634282390676 0.00982575302704073 3.5605077448575497 4.424337069193398 -1.881678188475919 -0.766787978473426 3.5484601498716115 0.3377202357490227 -0.695350922714114 -1.1768572603536116 -0.6451416189578905 -0.4250435109146077 -0.4004379525300639 -0.5378431794402758 -0.5607011461909566 12.664630237779576 -0.8547638365923683 0.31063245543615736 -0.46651379947061283 -1.7418904483964899 0.6818651282147008 -16.701020892745493 -0.15369550450038408 -9.43259443356261 3.41130487391739 -17.056821167192474 73.61042261792811 -6.460649339963608 0.12358787372720957 1.050252392277487 -0.9789201942638369 68.00813361123751 16.38867615204852 -0.36898454018842736 -2.043449284954149 4.531657188284861 -0.11831707006307532 -1.5965739063599464 0.0014440027231827875 -0.04816913660024663 -56.20476013853986 -0.008784368284211296 0.03327358786988063 -56.24119338769093 -38.76331118915715 -0.0003569546299203209 0.017380009265268895 -0.019689614032528613 -0.000980220020823245 0.015377644427925745 0.02404975233023981 -0.042578357060344504 -0.007179600901358882 -36.71939745276155 -0.02560164088900236 -0.0012499824550664253 -0.0400668145459686 0.020029926773269837 -0.03815040955287502 -0.0415630928085821 -0.0025483591380324076 0.008924810375981656 -19.740605659254275 0.030572807216009825 -0.00830711274847704 -0.0026792517321982683 -0.03139193754764435 -0.008608509219236291 0.03484765045415724 -0.00522149258494244 0.0484099200300835 24.017014465650828 -0.026727346862783274 0.020916490897447137 28.864867811327194 -0.038143561540290735 0.023807760197391396 28.84061286641309 -0.036565827069906055 0.021222000239836482 12.160320647674483 2.834605201658765 14.823403264796754 -62.05290825412927 1.2721986921229964 -24.691902725742768 -12.882905456652084 -5.738665146001081 -87.34130660975528 -12.09353375500498 -3.5604867713859605 -0.953276983299801 -0.5054271774182959 0.08946605886088202 -8.086595312134952 -0.0015631095916226023 -0.039015289755044195 44.58549308190501 0.0346894588664592 -0.007702608149326597 44.56749477162197 12.473301865726933 0.02595413756277676 0.014684221084100274 -0.018466451532932252 -0.033553824149415996 0.018562122712818045 0.030069335724087775 -0.016944608427849648 0.01150490971411773 11.135947495554992 -0.04339978235696453 -0.03017142393372849 -0.013579231685253053 0.017450259941919566 -0.020480500098593 -0.03871658053770015 -0.018463963159678007 -0.011002524215231355 4.811621106628128 -0.019521552870715844 -0.039556979767286796 -0.009136463650297941 -0.0035338113599238793 0.014420451578275631 -0.03609980624858971 0.0292574491742496 -0.020849852490427544 -5.603577103904815 -0.011630734665248407 -0.03885682869239512 -6.7655649595335605 -0.02132848949009094 -0.01976863418250459 -6.733793110475299 0.049065088504472526 0.02365269723714164 0.03247884466492606 -0.016431335532266795 -0.001764802380679269 8.0176191246876 3.475785201961608 -19.226446830830685 -0.005630899432551165 10.386912037628429 0.022533675642648604 -5.608250425840639 -15.68112161788545 3.1820320279458953 0.005350979380817973 0.0452827523372143 0.04752655089695209 0.01455308821456596 4.72185571896677 0.021805484253759232 12.456923569703736 -8.20615614399602 6.850203047444001 -0.019208987521300083 46.33800647846847 -0.02242732531603288 -4.297811071050563 -14.779220523126408 -3.7978449247515518 0.029675024369432992 0.019242604979424878 0.026396069422639 0.009247122733476961 -10.728525482899455 0.024731437115058045 
-0.042145664074420205 -0.012985576291373119 -0.0006352045291251336 0.0400404541384581 0.033605191975254876 -0.007724531688106936 3.326016738906636 4.639302179899845 -1.7877345068465642 -0.8172370458426429 3.4834816206598864 0.38522011567265224 -0.6390922027042486 -1.1489005783279813 -0.8087208509276386 -0.4776472555084181 -0.46241883515097687 -0.5481272456412002 -0.5419520514255644 12.483975687630995 -0.913356069718874 0.31083475781887593 -0.47149816726729216 -1.8723596803014275 0.6675676946658373 -16.760512249580835 -0.20336642369993477 -9.036044123354426 3.2627754039176406 -16.976310567700605 73.59095257860693 -6.7928774590338685 -0.8459916016599126 0.46843613518813526 -1.2696621997986708 68.19834126887667 17.426949669018626 -0.4051308849342606 -2.129944322521367 4.557490953504301 -0.08706030498009298 -1.545548811740743 0.008084328710263848 0.0006014222744469485 -56.26244828879099 0.008038604140901996 -0.0003482029413018331 -56.22890345926611 -38.800263821380135 0.016847909985612516 0.04462095428238118 0.0495983430860836 -0.028473964412076586 0.023884459247252347 -0.02086981621470598 0.028372611226586405 0.0016545055723729035 -36.66029149092735 -0.026011642654163992 -0.001990784942581287 -0.02100323515907177 0.004693989982982618 0.030866716876630406 -0.007083310036483642 -0.005264731636463568 0.011909498600785192 -19.712043932265743 0.0029594667133621168 0.007457806091628094 0.0030110220436854076 0.04215088788017269 -0.04914294094617204 0.03195106228407627 -0.01302285871619876 -0.03473766326833866 24.052625542130443 -0.013815607126870846 0.010478199495017378 28.909952635278298 0.02202425761291966 -0.009107936574564074 28.84586999173178 0.012955495195330978 -0.007129553571534798 11.958996727873295 2.8677099786910816 14.65843873078372 -61.32013855921403 1.0092318665988156 -24.999842093547958 -13.31621573087149 -6.077124194948519 -88.69271895008788 -12.388870423449934 -3.6374946707631106 -1.0105110169941254 -0.46205324288284466 0.03389481372785229 -8.119177730913984 0.023834226857122325 0.013299828484361835 44.58959071219826 -0.026028899149069168 -0.021717118846086424 44.54907698251801 12.497827254684852 -0.006876288884741982 0.04359632704931247 -0.010539011591565582 0.04089102292048794 -0.014739776279907872 -0.011461101797906994 -0.015334105994105871 -0.024054585512078328 11.063525706799267 0.028344093787822853 -0.02178081917454941 0.031388000828742386 0.0039755518682582005 -0.010682255689384223 0.0401174739074014 0.020339285566449157 -0.02328167521990879 4.741825462789052 -0.02093123378165859 0.013097694482713487 0.003141030857475731 -0.010426073320114393 -0.0064278479157110265 -0.0390558303496822 0.026002426588215857 0.02060748287958975 -5.571085807449349 0.01176361036208587 0.00937495314742146 -6.72712567090474 -0.023661306015666985 0.006989149218536273 -6.671834706198495 0.030987942064497644 0.032040224710219396 -0.02017319965600744 -0.035737172333992234 -0.041923288619290996 8.056724294488832 3.4935956646630326 -19.243778782089443 0.030745334069030864 10.401077795487193 0.042776000878649585 -5.627004188161412 -15.624364683179751 3.146740380111491 -0.025733237864805806 -0.01408787935842809 -0.03573813296126315 -0.027816405832922324 4.717182775622059 0.02822392979006162 12.452069011874013 -8.237836796215293 6.884549451248784 -0.03469264584326287 46.41766419448761 -0.014570235540727793 -4.372474991484055 -14.702444143294153 -3.8121375238283624 0.013052815547774982 -0.04123725607952054 -0.020669045719994623 0.002803656101479263 -10.73746366548257 -0.0013237584881080112 
